<svg width="25" height="25" viewBox="0 0 25 25" fill="none" xmlns="http://www.w3.org/2000/svg">
<g clip-path="url(#clip0)">
<path d="M9.04458 25.002C5.32383 24.9806 2.24609 17.3853 2.24609 13.5172C2.24609 7.19863 6.98608 5.81533 8.81284 5.81533C9.63608 5.81533 10.5151 6.13862 11.2905 6.42471C11.8327 6.62427 12.3934 6.83027 12.7053 6.83027C12.8919 6.83027 13.3318 6.65503 13.7202 6.50127C14.5485 6.17153 15.5792 5.76172 16.7793 5.76172C16.7815 5.76172 16.7844 5.76172 16.7865 5.76172C17.6827 5.76172 20.4 5.9584 22.0336 8.41172L22.4163 8.98677L21.8655 9.40234C21.0788 9.996 19.6432 11.0789 19.6432 13.224C19.6432 15.7645 21.269 16.7416 22.05 17.2115C22.3948 17.4189 22.7517 17.6328 22.7517 18.1006C22.7517 18.406 20.3141 24.9642 16.7743 24.9642C15.9082 24.9642 15.2959 24.7038 14.7559 24.4742C14.2094 24.2417 13.738 24.0415 12.9591 24.0415C12.5643 24.0415 12.065 24.2282 11.5365 24.4263C10.8142 24.6959 9.99658 25.002 9.0689 25.002H9.04458Z" fill="#828282"/>
<path d="M17.1537 0C17.2459 3.32402 14.8687 5.63008 12.4943 5.48545C12.1031 2.83276 14.8684 0 17.1537 0Z" fill="#828282"/>
</g>
<defs>
<clipPath id="clip0">
<rect width="25" height="25" fill="white"/>
</clipPath>
</defs>
</svg>
