<svg width="50" height="50" viewBox="0 0 50 50" fill="none" xmlns="http://www.w3.org/2000/svg">
<path d="M25 15.1622C28.2041 15.1622 28.5837 15.1744 29.849 15.2321C31.019 15.2855 31.6544 15.481 32.0773 15.6453C32.6374 15.863 33.0371 16.123 33.457 16.5429C33.877 16.9629 34.137 17.3626 34.3547 17.9227C34.519 18.3456 34.7145 18.981 34.7679 20.1509C34.8256 21.4163 34.8378 21.7958 34.8378 24.9999C34.8378 28.2041 34.8256 28.5836 34.7679 29.849C34.7145 31.019 34.519 31.6543 34.3547 32.0772C34.137 32.6373 33.877 33.0371 33.4571 33.457C33.0371 33.8769 32.6374 34.1369 32.0773 34.3546C31.6544 34.519 31.019 34.7144 29.849 34.7678C28.5839 34.8255 28.2044 34.8378 25 34.8378C21.7956 34.8378 21.4162 34.8255 20.151 34.7678C18.981 34.7144 18.3456 34.519 17.9227 34.3546C17.3626 34.1369 16.9629 33.8769 16.543 33.457C16.1231 33.0371 15.863 32.6373 15.6453 32.0772C15.481 31.6543 15.2855 31.019 15.2321 29.849C15.1744 28.5836 15.1622 28.2041 15.1622 24.9999C15.1622 21.7958 15.1744 21.4163 15.2321 20.1509C15.2855 18.981 15.481 18.3456 15.6453 17.9227C15.863 17.3626 16.123 16.9629 16.543 16.543C16.9629 16.123 17.3626 15.863 17.9227 15.6453C18.3456 15.481 18.981 15.2855 20.151 15.2321C21.4163 15.1744 21.7959 15.1622 25 15.1622ZM25 13C21.741 13 21.3323 13.0138 20.0524 13.0722C18.7752 13.1305 17.9028 13.3333 17.1395 13.63C16.3504 13.9366 15.6812 14.3469 15.0141 15.0141C14.3469 15.6812 13.9366 16.3504 13.63 17.1395C13.3333 17.9028 13.1305 18.7751 13.0722 20.0524C13.0138 21.3323 13 21.741 13 24.9999C13 28.259 13.0138 28.6676 13.0722 29.9475C13.1305 31.2248 13.3333 32.0971 13.63 32.8604C13.9366 33.6495 14.3469 34.3187 15.0141 34.9859C15.6812 35.653 16.3504 36.0633 17.1395 36.3699C17.9028 36.6666 18.7752 36.8694 20.0524 36.9277C21.3323 36.9861 21.741 36.9999 25 36.9999C28.259 36.9999 28.6677 36.9861 29.9476 36.9277C31.2248 36.8694 32.0972 36.6666 32.8605 36.3699C33.6496 36.0633 34.3188 35.653 34.9859 34.9859C35.653 34.3187 36.0634 33.6495 36.37 32.8604C36.6667 32.0971 36.8695 31.2248 36.9278 29.9475C36.9862 28.6676 37 28.259 37 24.9999C37 21.741 36.9862 21.3323 36.9278 20.0524C36.8695 18.7751 36.6667 17.9028 36.37 17.1395C36.0634 16.3504 35.653 15.6812 34.9859 15.0141C34.3188 14.3469 33.6496 13.9366 32.8605 13.63C32.0972 13.3333 31.2248 13.1305 29.9476 13.0722C28.6677 13.0138 28.259 13 25 13Z" fill="#333333"/>
<path d="M25.0057 18.8433C21.6024 18.8433 18.8435 21.6021 18.8435 25.0054C18.8435 28.4087 21.6024 31.1675 25.0057 31.1675C28.409 31.1675 31.1678 28.4087 31.1678 25.0054C31.1678 21.6021 28.409 18.8433 25.0057 18.8433ZM25.0057 29.0054C22.7965 29.0054 21.0057 27.2145 21.0057 25.0054C21.0057 22.7963 22.7965 21.0054 25.0057 21.0054C27.2148 21.0054 29.0057 22.7963 29.0057 25.0054C29.0057 27.2145 27.2148 29.0054 25.0057 29.0054Z" fill="#333333"/>
<path d="M32.8507 18.5963C32.8507 19.3915 32.206 20.0363 31.4107 20.0363C30.6154 20.0363 29.9707 19.3915 29.9707 18.5963C29.9707 17.801 30.6154 17.1562 31.4107 17.1562C32.206 17.1562 32.8507 17.801 32.8507 18.5963Z" fill="#333333"/>
<circle cx="25" cy="25" r="24.5" stroke="#4F4F4F"/>
</svg>
