<svg width="25" height="25" viewBox="0 0 25 25" fill="none" xmlns="http://www.w3.org/2000/svg">
<g clip-path="url(#clip0)">
<path d="M1.85625 0.921875C1.55965 1.31307 1.39453 1.7943 1.39453 2.30928V22.6927C1.39453 23.1711 1.53748 23.6205 1.79567 23.9958L12.9082 12.4274L1.85625 0.921875Z" fill="#828282"/>
<path d="M13.9268 11.3669L17.5319 7.61396L4.8597 0.312057C4.30969 -0.00494418 3.67865 -0.0800938 3.08984 0.0850827L13.9268 11.3669Z" fill="#828282"/>
<path d="M13.927 13.4844L2.98047 24.88C3.21649 24.9592 3.46072 24.999 3.70515 24.999C4.1017 24.999 4.49844 24.8949 4.85983 24.6866L17.6232 17.3321L13.927 13.4844Z" fill="#828282"/>
<path d="M22.5437 10.5021L18.8389 8.36719L14.9414 12.4243L18.9298 16.5766L22.5437 14.4942C23.2668 14.0776 23.6985 13.3313 23.6985 12.4981C23.6985 11.6648 23.2668 10.9186 22.5437 10.5021Z" fill="#828282"/>
</g>
<defs>
<clipPath id="clip0">
<rect width="25" height="25" fill="white"/>
</clipPath>
</defs>
</svg>
