<svg width="50" height="50" viewBox="0 0 50 50" fill="none" xmlns="http://www.w3.org/2000/svg">
<path fill-rule="evenodd" clip-rule="evenodd" d="M37 17.3086C36.1177 17.7006 35.1681 17.9646 34.1722 18.0838C35.1889 17.4742 35.9697 16.5095 36.3368 15.36C35.3865 15.9247 34.3314 16.3335 33.2107 16.5551C32.3123 15.5984 31.0316 15 29.6165 15C26.8975 15 24.6928 17.2047 24.6928 19.9237C24.6928 20.3092 24.7368 20.6852 24.8208 21.046C20.7283 20.8412 17.1005 18.8805 14.6719 15.9015C14.2479 16.6287 14.0055 17.4742 14.0055 18.3766C14.0055 20.0845 14.8735 21.5916 16.1958 22.4747C15.3878 22.4491 14.6295 22.2275 13.9647 21.8587V21.9203C13.9647 24.3066 15.663 26.296 17.9141 26.7496C17.5013 26.8616 17.0661 26.9224 16.6174 26.9224C16.2998 26.9224 15.991 26.8912 15.6902 26.8336C16.3166 28.7895 18.1357 30.2134 20.2899 30.2534C18.6052 31.5733 16.4822 32.3612 14.1751 32.3612C13.7767 32.3612 13.3848 32.338 13 32.2916C15.1791 33.6884 17.7669 34.5043 20.5475 34.5043C29.6037 34.5043 34.5562 27.0016 34.5562 20.4956C34.5562 20.282 34.5522 20.0693 34.5418 19.8589C35.5049 19.1629 36.34 18.2958 37 17.3086Z" fill="#333333"/>
<circle cx="25" cy="25" r="24.5" stroke="#4F4F4F"/>
</svg>
